<svg width="115" height="34" fill="none" xmlns="http://www.w3.org/2000/svg"><g clip-path="url(#clip0)" fill="#F0C52E"><path d="M0 12.88v2.58h2.46v-2.58H0zM11.65 4.53c-1.56 0-2.82.7-3.62 1.74h-.08V0H5.92v15.46h2.03v-5.3c0-2.13 1.32-3.66 3.27-3.66 1.84 0 2.9 1.38 2.9 3.22v5.74h2.04v-6.1c0-2.94-1.82-4.83-4.51-4.83zM26.62 4.83H21.8V1.07h-2.03v3.76h-1.93v1.98h1.93v5.98c0 1.72.96 2.67 2.7 2.67h4.14v-2h-3.74c-.69 0-1.07-.39-1.07-1.05V6.8h4.8V4.83zM41.12 4.55c-1.62 0-2.86.8-3.55 2.06h-.06a3.6 3.6 0 00-3.36-2.06c-1.4 0-2.48.75-3.12 1.8h-.08V4.83H29v10.63h2.03V10c0-2 1.05-3.45 2.63-3.5 1.5-.04 2.37 1.04 2.37 2.65v6.3h2.04V9.84c0-2.38 1.4-3.33 2.62-3.33 1.48 0 2.36 1.04 2.36 2.65v6.3h2.03V8.94c0-2.58-1.46-4.38-3.96-4.38zM47.83 12.7c0 1.75.98 2.76 2.8 2.76h2v-1.98h-1.7c-.69 0-1.07-.38-1.07-1.05V0h-2.03v12.7zM28.9 19.7h-.08a4.64 4.64 0 00-3.8-1.83c-3.14-.04-5.39 2.28-5.39 5.57 0 3.3 2.3 5.64 5.38 5.6a4.53 4.53 0 003.8-1.95h.1v1.64h2V18.17h-2v1.54zm-3.6 7.37a3.5 3.5 0 01-3.63-3.63c0-2 1.41-3.63 3.64-3.63a3.49 3.49 0 013.57 3.63 3.5 3.5 0 01-3.57 3.63zM44.2 22.01c-.48-2.39-2.6-4.14-5.39-4.14a5.4 5.4 0 00-5.6 5.57c0 3.12 2.24 5.6 5.6 5.6 2.79 0 4.9-1.8 5.4-4.21h-2.12a3.32 3.32 0 01-3.25 2.26 3.5 3.5 0 01-3.6-3.65c0-2 1.41-3.63 3.6-3.63 1.62 0 2.82.96 3.25 2.2h2.12zM55.08 19.7H55a4.64 4.64 0 00-3.8-1.83c-3.14-.04-5.39 2.28-5.39 5.57 0 3.3 2.3 5.64 5.38 5.6a4.53 4.53 0 003.8-1.95h.1v1.64h2V18.17h-2v1.54zm-3.6 7.37a3.5 3.5 0 01-3.63-3.63c0-2 1.41-3.63 3.64-3.63a3.49 3.49 0 013.57 3.63 3.5 3.5 0 01-3.57 3.63zM68.65 19.81h-.08a4.62 4.62 0 00-3.81-1.94c-3.09-.04-5.38 2.28-5.38 5.6 0 3.28 2.25 5.6 5.4 5.56 1.67-.02 3-.77 3.77-1.83h.1v1.53h2.02V13.37h-2.02v6.44zm-3.6 7.28a3.5 3.5 0 01-3.63-3.63c0-2 1.41-3.63 3.64-3.63a3.5 3.5 0 013.57 3.63c0 2-1.41 3.63-3.57 3.63zM78.33 17.87a5.4 5.4 0 00-5.48 5.6c0 3 2.1 5.56 5.52 5.56 2.49 0 4.48-1.34 5.18-3.58h-2.12c-.47 1-1.6 1.64-2.97 1.64-1.93 0-3.3-1.28-3.45-2.92h8.76c.28-3.52-1.93-6.3-5.44-6.3zm-.04 1.94a3.2 3.2 0 013.27 2.56h-6.5a3.18 3.18 0 013.23-2.56zM98.2 17.9c-1.63 0-2.87.78-3.56 2.04h-.06a3.6 3.6 0 00-3.36-2.05 3.6 3.6 0 00-3.13 1.8h-.08v-1.52h-1.95v10.56h2.03v-5.42c0-1.98 1.05-3.43 2.64-3.48 1.5-.04 2.37 1.03 2.37 2.63v6.27h2.04v-5.59c0-2.37 1.41-3.3 2.63-3.3 1.48 0 2.36 1.02 2.36 2.62v6.27h2.03v-6.48c0-2.57-1.46-4.36-3.96-4.36zM109.44 27.05l-3.64-8.88h-2.25l4.84 11.57-.02.04c-.34.87-.73 1.2-1.67 1.2h-2.5V33h2.5c1.84 0 2.83-.83 3.51-2.62l4.67-12.21h-2.08l-3.36 8.88z"/></g><defs><clipPath id="clip0"><path fill="#fff" d="M0 0h115v33.03H0z"/></clipPath></defs></svg>